<?xml version="1.0" encoding="utf-8"?>
<!-- Generator: Adobe Illustrator 24.0.0, SVG Export Plug-In . SVG Version: 6.00 Build 0)  -->
<svg version="1.1" id="Layer_1" xmlns="http://www.w3.org/2000/svg" xmlns:xlink="http://www.w3.org/1999/xlink" x="0px" y="0px"
	 viewBox="0 0 1863 1000" style="enable-background:new 0 0 1863 1000;" xml:space="preserve">
<style type="text/css">
	.st0{fill:#BD2CB3;}
	.st1{fill:#7E0C96;}
	.st2{fill:none;}
	.st3{opacity:0.16;fill:#FFFFFF;enable-background:new    ;}
	.st4{opacity:0.15;fill:#FFFFFF;enable-background:new    ;}
	.st5{fill:#46DFA8;}
	.st6{opacity:0.58;fill:#35A77E;enable-background:new    ;}
	.st7{opacity:0.28;fill:#FFFFFF;enable-background:new    ;}
</style>
<title>planats</title>
<g>
	
		<image style="overflow:visible;enable-background:new    ;" width="179" height="179" xlink:href="F1982299.png"  transform="matrix(1 0 0 1 0 821)">
	</image>
	<path class="st0" d="M138.6,909.5c0,25.8-20.1,47.2-45.8,48.8c-1,0.1-2,0.1-3,0.1c-9.2,0-18.2-2.6-26-7.5c-1.7-1-3.3-2.2-4.8-3.4
		c-1.6-1.3-3.2-2.7-4.6-4.2c-0.7-0.7-1.3-1.4-1.9-2.1c-2.5-2.9-4.6-6.1-6.3-9.5c-0.5-1-1-2.1-1.5-3.2c-1.3-3.2-2.4-6.5-3-9.9
		c-0.6-3-0.8-6.1-0.8-9.1c0-27,21.9-48.9,48.9-48.9c2,0,4,0.1,6,0.4c5.3,0.7,10.5,2.2,15.3,4.5c9,4.4,16.4,11.4,21.3,20.1
		C136.4,893,138.6,901.2,138.6,909.5z"/>
	<path class="st1" d="M129.7,910.9c-0.9,2-2.7,3.5-4.5,4.9c-4.4,3.5-9,6.9-14.1,9.3c-13.4,6.3-30.1,5.2-41.6,14.5
		c-1.8,1.4-3.3,3.2-4.4,5.2c-0.9,1.9-1.3,4-1.4,6.1c-1.7-1-3.3-2.2-4.8-3.4c2.1-5.3,5.2-10.1,9.1-14.1c4.3-4.3,9.5-7.7,13.4-12.3
		c4.8-5.7,7.7-13.3,14-17.4c5.6-3.6,13.3-4,17.4-9.1c3.3-4.2,3.3-10.6,7.2-14.3c1.8-1.6,4-2.7,6.4-3c2.3,2.6,4.3,5.4,6,8.4
		c-5.2,2.4-9.9,5.7-11.9,10.9c-0.8,2-1.1,4.2-2,6c-1.6,3.1-4.8,5.1-8,6.3s-6.8,1.8-10,2.9c-1.6,0.5-3.1,1.3-4.4,2.5
		c-1.2,1.2-1.6,3.1-1,4.7c4.7,0.9,9.6,0.2,13.8-2c4.2-2.2,7.9-5.2,11.1-8.7c2.3-2.4,5.6-5.1,8.4-3.4
		C130.3,906.1,130.6,908.9,129.7,910.9z"/>
	<path class="st1" d="M134.9,928.1c-1.8,4.4-4.3,8.5-7.3,12.2c-7.7,2.1-15.8,3.1-22.8,6.8c-4.9,2.6-9,6.5-12,11.1
		c-1,0.1-2,0.1-3,0.1c-4,0-8-0.4-11.9-1.4c3.6-3.9,8.1-6.9,13-8.8c5.6-2.4,11.5-3.9,17.3-6c8.8-3.1,17.1-7.3,24.8-12.6
		C133.6,929.1,134.2,928.6,134.9,928.1z"/>
	<path class="st1" d="M111.1,865.6c-1.4,1.1-2.6,2.4-3.7,3.8c-3.5,4.5-5.6,10-7.4,15.5c-1.1,3.4-2.3,7-4.7,9.7s-5.8,4-9.1,5.1
		C76.6,903,66.3,905,58,910.9c-4.9,3.4-8.9,8.1-11.6,13.4c-0.7,1.4-1.3,2.8-1.7,4.2c-1.3-3.2-2.4-6.5-3-9.9
		c2.4-10.4,6.6-20.3,12.5-29.3c1-1.7,2.2-3.2,3.7-4.4c3.8-2.9,9.1-2.3,13.9-2.8c5.5-0.5,10.7-2.5,15.1-5.8c2.6-1.8,4.7-4.2,6.1-7.1
		c0.8-1.9,1.2-4,1.8-5.9c0.3-0.8,0.6-1.6,1-2.4C101.1,861.7,106.3,863.2,111.1,865.6z"/>
	<line class="st2" x1="60.1" y1="872.9" x2="60.1" y2="872.9"/>
	<path class="st1" d="M82,910.7c-0.4,2.8-2.4,5-4.4,6.9c-2.3,2.1-4.9,4-7.6,5.5c-1.9,1-3.6,2.1-5.3,3.3c-1.9,1.7-3.6,3.7-4.8,6
		c-1.3,2.1-2.4,4.3-3.5,6.5c-0.7,1.4-1.4,2.8-2.1,4.3c-0.7-0.7-1.3-1.4-1.9-2.1c-1.3-1.6-2.5-3.2-3.6-4.9c1.4-1.6,2.6-3.3,3.7-5.1
		c2.4-4.2,3.7-9,6.6-12.8c1.3-1.6,2.8-3,4.4-4.4c2-1.9,4.3-3.6,6.8-4.9c3-1.4,6.5-1.8,9.7-1.1c0.6,0.1,1.1,0.3,1.6,0.7
		C82,909.3,82.1,910,82,910.7z"/>
	<path class="st3" d="M117.3,869.4c-2.1-0.4-4.5-0.3-6.2,1.1c-1.1,1-1.8,2.2-2.1,3.6c-0.8,3.4,0.1,6.9,1.7,10s3.8,5.8,5.6,8.7
		c4.5,6.9,7.2,15.2,6.6,23.4s-5,16.3-12.1,20.6c-5.1,3-11.1,3.9-17,3.9c-4.3,0.1-8.6-0.6-12.7-2.1c-4.1-1.4-7.6-4.1-10.2-7.6
		c-1.5-2.3-2.5-4.8-3.2-7.4c-0.7-2.2-0.9-4.6-0.5-6.9c0.6-2.1,1.5-4,2.7-5.8c2.6-4.7,4.2-10,4.8-15.3c0.5-3.8,0.2-7.7-0.9-11.5
		c-0.2-1-0.8-2-1.6-2.7c-1.2-0.8-2.5-1.5-3.8-2c-3.8-0.8-6.4-0.5-10.3-0.1c-3.9,0.2-7.5,2-10.1,4.8c-9,14.9-9.5,33.4-1.3,48.8
		c13.5,26.2,43,25.7,43,25.7s18.3,0.7,32.5-12.6s20.1-31.6,14.1-51.2C129.1,875.2,117.3,869.4,117.3,869.4z"/>
	<path class="st4" d="M59.8,884.3c3.3,0.6,5.6,3.5,5.4,6.8c-0.3,3.3-3,5.8-5,8.5c-1.1,1.6-2.2,3.3-3.1,5.1c-0.7,1.3-1.4,2.7-1.1,4.1
		c0.4,1,0.8,2,1.3,2.9c0.4,1.6,0.2,3.3-0.7,4.7c-0.8,1.5-2.2,3-4,3c-1.1-0.1-2-0.6-2.7-1.4c-0.7-0.9-1.1-1.8-1.4-2.8
		c-2.8-8-1.4-17.5,1.7-25.2c0.6-1.8,1.8-3.3,3.5-4.1C55.6,884.6,57.7,884.1,59.8,884.3z"/>
</g>
<image style="overflow:visible;enable-background:new    ;" width="351" height="351" xlink:href="F198229B.png"  transform="matrix(1 0 0 1 1512 0)">
</image>
<path class="st5" d="M1820.4,178.6c0.1,68.5-52,125.7-120.2,132.1c-4.1,0.4-8.3,0.6-12.5,0.6c-0.5,0-1,0-1.4,0
	c-5.7-0.1-11.4-0.5-17-1.3l0,0c-6.1-0.8-12.1-2.1-18-3.8c-2.3-0.7-4.7-1.4-7-2.2c-53.5-18.5-89.3-68.9-89.3-125.5
	c0-4.6,0.2-9.2,0.7-13.8c1.6-15.4,5.9-30.4,12.7-44.3c22.3-45.6,68.6-74.6,119.3-74.6c4.9,0,9.8,0.3,14.6,0.8
	c27.9,3.1,54.1,14.9,74.8,33.8c2,1.8,4,3.7,5.9,5.7C1807,111,1820.4,144.1,1820.4,178.6L1820.4,178.6z"/>
<path class="st6" d="M1702.3,46.7c-8.2,11.9-17.3,23.3-27,34c-3.1,3.5-6.4,7-10.4,9.4c-8.3,5-19,4.7-28.2,1.5s-17.1-9.1-24.9-14.8
	l-4.8-3.5c23.1-17.8,51.5-27.4,80.7-27.4C1692.6,45.9,1697.5,46.1,1702.3,46.7z"/>
<path class="st6" d="M1659.3,117.3c-0.5,2.7-3.4,4.1-5.9,5.1c-29.6,11.3-61,17.3-92.7,17.6c2-6.7,4.6-13.2,7.7-19.6l1.1-0.1
	c9.2-1.2,17.9-4.9,26.8-7.8c12.6-4.1,25.6-6.7,38.8-7.6c8.8-0.6,19.6,0.6,23.6,8.6C1659.2,114.7,1659.5,116,1659.3,117.3z"/>
<path class="st6" d="M1761.9,68.6c-3.7,3-7.9,5.6-12.3,7.5c-8,3.5-16.8,4.8-25.1,7.5s-16.6,7.1-20.9,14.7
	c-2.8,4.9-3.6,10.7-6.6,15.4s-9.6,8.1-14.1,4.8c-5.2-6.5-3.8-16.3,0.7-23.1s11.7-11.6,18.4-16.4s13.5-10.2,16.9-17.7
	c1.5-3.5,2.4-7.2,2.6-11C1735.9,54,1749.6,60.2,1761.9,68.6z"/>
<path class="st6" d="M1774.5,221.3c-5.5,7.4-15,10.6-21.8,16.7c-7.7,6.9-11.7,17.2-12.1,27.4s2.5,20.4,6.9,29.7
	c0.3,0.5,0.5,1.1,0.8,1.6c-15,7.7-31.3,12.4-48.1,14c1.7-4.3,1.4-9.1,1-13.8l-4-53.6c-0.3-3.8-0.6-7.8,0.5-11.4
	c1.4-4.8,5.1-8.6,8.6-12.2c8.3-8.6,16.9-17.3,27.6-22.6c9-4.4,19.2-6.2,29.2-7.3c2-0.4,4.1-0.3,6.1,0.2c1.6,0.7,3.1,1.7,4.2,3.1
	C1780.1,201.1,1780.6,212.7,1774.5,221.3z"/>
<path class="st6" d="M1820.4,178.6c0,35.6-14.3,69.8-39.8,94.7c-1.8-3.5-2.7-7.5-2.5-11.4c0.3-7.7,3.9-14.8,7.7-21.5
	s8-13.4,9.7-20.9c3.5-15.2-3.3-32.6,4.5-46.1c4-6.9,11.2-11.4,19-13.6C1819.9,166,1820.4,172.3,1820.4,178.6z"/>
<path class="st6" d="M1785.4,137.4c-2.2,10.6-9.9,19.4-19,25.1s-19.8,8.6-30.4,10.7c-25.7,5.2-53.5,7.1-74.5,22.8
	c-5.7,4.2-10.7,9.5-13.4,16c-2.1,5.3-2.6,11.1-2.6,16.8c-0.1,13.6,1.9,27.2,5.9,40.2c2.8,9,6.5,18.2,4.6,27.4
	c-0.8,3.6-2.4,7-4.6,9.9c-2.3-0.7-4.7-1.4-7-2.2c-22.3-7.7-42.1-21.3-57.5-39.2c5.3-7.9,8.1-17.3,6.1-26.5
	c-2.9-13.9-15.9-24.6-17-38.8c-0.8-10.2,5.2-20.1,13.4-26.2s18.5-8.9,28.6-10.3c32-4.5,66.8,2.6,95.1-13
	c9.5-5.3,17.6-12.8,26.4-19.2s19.1-11.7,30-11.4c6.5,0.2,13.6,3.1,15.8,9.2C1786.1,131.6,1786.1,134.5,1785.4,137.4z"/>
<path class="st6" d="M1783,86.2c4.6,4.7,8.8,9.7,12.6,15.1c-8.8,1.4-17.8,0.4-26.7,1.4c-12.2,1.4-23.5,6.6-34.6,11.8l-21.8,10.1
	c-4.8-5.3-2.2-14.3,3.4-18.8s13-5.5,20.1-6.8c12.2-2.1,24.2-5.2,36-9C1775.7,88.9,1779.4,87.6,1783,86.2z"/>
<path class="st6" d="M1686.3,311.3c-5.7-0.1-11.4-0.5-17-1.3c6.1-25.3,6-52.4,1.9-78.2c-1-6.4-2.2-13-0.3-19.2s8.2-11.5,14.5-9.9
	c-2.8,10-5.7,20.2-5.7,30.6c0,10.6,2.9,21,4.9,31.5C1687.3,280.2,1687.9,295.8,1686.3,311.3z"/>
<path class="st7" d="M1767,73.6c-12.6-8.2-29.8-7.2-43.5-1c-4.4,2-9.1,5.5-9.2,10.3c0,2.6,1.3,5,2.6,7.2c5.6,9.6,11.9,18.6,19,27.1
	c4.5,5.4,9.3,10.6,13,16.7c11,18.2,9.4,42.1,0,61.1s-25.7,33.9-43.3,45.8c-6.5,4.4-13.4,8.5-21.1,10.2c-13.1,2.7-26.9-2.4-37-11.1
	s-16.9-20.7-22.2-32.9c-3.8-8.9-7-18.3-7.4-28.1c-0.6-13.4,4.1-26.5,3.7-39.8c-0.1-4.5-1.1-9.3-4.3-12.4c-2.8-2.6-6.7-3.5-10.4-4.3
	c-12-2.4-25.6-3.8-35.6,3.4c-9.5,6.9-12.6,19.3-15.1,30.8c0,0-8.5,48.1,17.8,90.6s64.3,55.2,77,58.8s60.5,14.8,101.8-11.6
	s64-65.1,67.6-99.2S1812.4,103.1,1767,73.6z"/>
</svg>
