<svg
  xmlns="http://www.w3.org/2000/svg"
  x="0px"
  y="0px"
  width="30"
  height="30"
  viewBox="0 0 50 50"
  style="fill: #26bad7"
>
  <path
    d="M 24.875 2 C 24.652344 2.023438 24.441406 2.125 24.28125 2.28125 L 19.28125 7.28125 C 18.882813 7.679688 18.882813 8.320313 19.28125 8.71875 C 19.679688 9.117188 20.320313 9.117188 20.71875 8.71875 L 24 5.4375 L 24 16 L 26 16 L 26 5.4375 L 29.28125 8.71875 C 29.679688 9.117188 30.320313 9.117188 30.71875 8.71875 C 31.117188 8.320313 31.117188 7.679688 30.71875 7.28125 L 25.71875 2.28125 C 25.496094 2.0625 25.183594 1.957031 24.875 2 Z M 25 18 C 18.382813 18 13 23.382813 13 30 C 13 36.617188 18.382813 42 25 42 C 31.617188 42 37 36.617188 37 30 C 37 23.382813 31.617188 18 25 18 Z M 0.8125 19 C 0.261719 19.050781 -0.144531 19.542969 -0.09375 20.09375 C -0.0429688 20.644531 0.449219 21.050781 1 21 L 3 21 L 3 47 C 3 47.550781 3.449219 48 4 48 L 46 48 C 46.550781 48 47 47.550781 47 47 L 47 21 L 49 21 C 49.359375 21.003906 49.695313 20.816406 49.878906 20.503906 C 50.058594 20.191406 50.058594 19.808594 49.878906 19.496094 C 49.695313 19.183594 49.359375 18.996094 49 19 L 46 19 C 45.449219 19 45 19.449219 45 20 L 45 46 L 5 46 L 5 20 C 5 19.449219 4.550781 19 4 19 L 1 19 C 0.96875 19 0.9375 19 0.90625 19 C 0.875 19 0.84375 19 0.8125 19 Z M 25 20 C 30.535156 20 35 24.464844 35 30 C 35 35.535156 30.535156 40 25 40 C 19.464844 40 15 35.535156 15 30 C 15 24.464844 19.464844 20 25 20 Z M 21.4375 24 L 20.875 30.53125 L 22.96875 30.53125 C 23.359375 29.898438 24.03125 29.53125 24.90625 29.53125 C 26.101563 29.53125 26.9375 30.351563 26.9375 31.59375 C 26.9375 32.820313 26.117188 33.625 24.90625 33.625 C 23.835938 33.625 23.007813 33 22.875 32.0625 L 20.6875 32.0625 C 20.757813 34.078125 22.421875 35.5625 24.875 35.5625 C 27.460938 35.5625 29.1875 33.921875 29.1875 31.53125 C 29.1875 29.320313 27.671875 27.75 25.53125 27.75 C 24.414063 27.75 23.632813 28.15625 23.15625 28.84375 L 23 28.84375 L 23.25 25.96875 L 28.5 25.96875 L 28.5 24 Z"
  ></path>
</svg>
